<svg width="12" height="18" viewBox="0 0 12 18" fill="none" xmlns="http://www.w3.org/2000/svg">
<path d="M11.9688 2.1163V0.304578C11.9688 0.147547 11.7883 0.0608283 11.6664 0.156922L1.10081 8.40927C1.01105 8.47908 0.938407 8.56847 0.88844 8.67063C0.838474 8.77278 0.8125 8.885 0.8125 8.99872C0.8125 9.11244 0.838474 9.22466 0.88844 9.32682C0.938407 9.42897 1.01105 9.51836 1.10081 9.58817L11.6664 17.8405C11.7907 17.9366 11.9688 17.8499 11.9688 17.6929V15.8811C11.9688 15.7663 11.9149 15.6561 11.8258 15.5858L3.38832 8.99989L11.8258 2.41161C11.9149 2.3413 11.9688 2.23114 11.9688 2.1163Z" fill="black"/>
</svg>
