<svg width="22" height="22" viewBox="0 0 22 22" fill="none" xmlns="http://www.w3.org/2000/svg">
<g filter="url(#filter0_d_4277_114)">
<path fill-rule="evenodd" clip-rule="evenodd" d="M17.7461 0.255599C17.8276 0.336879 17.8922 0.433436 17.9363 0.53974C17.9805 0.646044 18.0032 0.760007 18.0032 0.875099C18.0032 0.990192 17.9805 1.10415 17.9363 1.21046C17.8922 1.31676 17.8276 1.41332 17.7461 1.4946L5.49609 13.7446C5.33179 13.9089 5.10895 14.0012 4.87659 14.0012C4.64424 14.0012 4.42139 13.9089 4.25709 13.7446C4.09279 13.5803 4.00049 13.3575 4.00049 13.1251C4.00049 12.8927 4.09279 12.6699 4.25709 12.5056L16.5071 0.255599C16.5884 0.174114 16.6849 0.109463 16.7912 0.065352C16.8975 0.0212407 17.0115 -0.00146484 17.1266 -0.00146484C17.2417 -0.00146484 17.3556 0.0212407 17.462 0.065352C17.5683 0.109463 17.6648 0.174114 17.7461 0.255599Z" fill="#C8161D"/>
<path fill-rule="evenodd" clip-rule="evenodd" d="M4.25706 0.255599C4.17558 0.336879 4.11093 0.433436 4.06682 0.53974C4.02271 0.646044 4 0.760007 4 0.875099C4 0.990192 4.02271 1.10415 4.06682 1.21046C4.11093 1.31676 4.17558 1.41332 4.25706 1.4946L16.5071 13.7446C16.6714 13.9089 16.8942 14.0012 17.1266 14.0012C17.3589 14.0012 17.5818 13.9089 17.7461 13.7446C17.9104 13.5803 18.0027 13.3575 18.0027 13.1251C18.0027 12.8927 17.9104 12.6699 17.7461 12.5056L5.49606 0.255599C5.41478 0.174114 5.31823 0.109463 5.21192 0.065352C5.10562 0.0212407 4.99166 -0.00146484 4.87656 -0.00146484C4.76147 -0.00146484 4.64751 0.0212407 4.54121 0.065352C4.4349 0.109463 4.33834 0.174114 4.25706 0.255599Z" fill="#C8161D"/>
</g>
<defs>
<filter id="filter0_d_4277_114" x="0" y="-0.00146484" width="22.0032" height="22.0024" filterUnits="userSpaceOnUse" color-interpolation-filters="sRGB">
<feFlood flood-opacity="0" result="BackgroundImageFix"/>
<feColorMatrix in="SourceAlpha" type="matrix" values="0 0 0 0 0 0 0 0 0 0 0 0 0 0 0 0 0 0 127 0" result="hardAlpha"/>
<feOffset dy="4"/>
<feGaussianBlur stdDeviation="2"/>
<feComposite in2="hardAlpha" operator="out"/>
<feColorMatrix type="matrix" values="0 0 0 0 0 0 0 0 0 0 0 0 0 0 0 0 0 0 0.25 0"/>
<feBlend mode="normal" in2="BackgroundImageFix" result="effect1_dropShadow_4277_114"/>
<feBlend mode="normal" in="SourceGraphic" in2="effect1_dropShadow_4277_114" result="shape"/>
</filter>
</defs>
</svg>
