<svg width="20" height="21" viewBox="0 0 20 21" fill="none" xmlns="http://www.w3.org/2000/svg">
<path d="M13.5938 9.875H10.625V6.90625C10.625 6.82031 10.5547 6.75 10.4688 6.75H9.53125C9.44531 6.75 9.375 6.82031 9.375 6.90625V9.875H6.40625C6.32031 9.875 6.25 9.94531 6.25 10.0312V10.9688C6.25 11.0547 6.32031 11.125 6.40625 11.125H9.375V14.0938C9.375 14.1797 9.44531 14.25 9.53125 14.25H10.4688C10.5547 14.25 10.625 14.1797 10.625 14.0938V11.125H13.5938C13.6797 11.125 13.75 11.0547 13.75 10.9688V10.0312C13.75 9.94531 13.6797 9.875 13.5938 9.875Z" fill="#008000"/>
<path d="M10 1.75C5.16797 1.75 1.25 5.66797 1.25 10.5C1.25 15.332 5.16797 19.25 10 19.25C14.832 19.25 18.75 15.332 18.75 10.5C18.75 5.66797 14.832 1.75 10 1.75ZM10 17.7656C5.98828 17.7656 2.73438 14.5117 2.73438 10.5C2.73438 6.48828 5.98828 3.23438 10 3.23438C14.0117 3.23438 17.2656 6.48828 17.2656 10.5C17.2656 14.5117 14.0117 17.7656 10 17.7656Z" fill="#008000"/>
</svg>
